<?xml version="1.0" standalone="no"?>
<!DOCTYPE svg PUBLIC "-//W3C//DTD SVG 20010904//EN"
 "http://www.w3.org/TR/2001/REC-SVG-20010904/DTD/svg10.dtd">
<svg version="1.0" xmlns="http://www.w3.org/2000/svg"
 width="500.000000pt" height="500.000000pt" viewBox="0 0 500.000000 500.000000"
 preserveAspectRatio="xMidYMid meet">

<g transform="translate(0.000000,500.000000) scale(0.100000,-0.100000)"
fill="#000000" stroke="none">
<path d="M1180 3005 l0 -335 55 0 55 0 0 130 0 130 101 0 101 0 135 -130 136
-130 78 0 c44 0 79 2 79 4 0 2 -66 60 -146 128 l-146 123 88 6 c83 6 89 8 117
39 l28 32 -3 138 c-3 155 -10 171 -77 190 -20 5 -161 10 -318 10 l-283 0 0
-335z m552 228 c25 -22 27 -173 2 -197 -13 -14 -48 -16 -230 -16 l-214 0 0
115 0 115 212 0 c183 0 214 -2 230 -17z"/>
<path d="M2120 2998 c0 -127 5 -240 11 -261 17 -61 41 -67 294 -67 238 0 277
7 295 55 6 15 10 130 10 261 l0 234 -50 0 -50 0 -2 -232 -3 -233 -197 -3 -198
-2 -2 232 -3 233 -52 3 -53 3 0 -223z"/>
<path d="M2987 3213 c-4 -3 -7 -127 -7 -275 l0 -268 55 0 54 0 3 120 3 120
180 -120 180 -120 84 0 85 0 -210 131 c-115 72 -215 137 -222 144 -11 10 24
36 182 140 108 70 196 129 196 131 0 2 -30 4 -67 4 l-68 -1 -169 -114 c-93
-63 -170 -115 -172 -115 -2 0 -4 52 -4 115 l0 115 -48 0 c-27 0 -52 -3 -55 -7z"/>
<path d="M3760 2945 l0 -275 50 0 50 0 0 275 0 275 -50 0 -50 0 0 -275z"/>
<path d="M836 2564 c-8 -20 -8 -108 0 -128 5 -13 22 -16 80 -16 l75 0 6 30 6
30 1532 0 1532 0 6 -30 6 -30 75 0 c84 0 86 2 86 80 0 78 -2 80 -86 80 l-75 0
-6 -30 -5 -30 -1533 0 -1532 0 -6 30 -6 30 -75 0 c-58 0 -75 -3 -80 -16z"/>
</g>
</svg>
